<?xml version="1.0" encoding="UTF-8"?>
<svg width="68px" height="24px" viewBox="0 0 68 24" version="1.1" xmlns="http://www.w3.org/2000/svg" xmlns:xlink="http://www.w3.org/1999/xlink">
    <!-- Generator: Sketch 47.1 (45422) - http://www.bohemiancoding.com/sketch -->
    <title>Cinemax</title>
    <desc>Created with Sketch.</desc>
    <defs></defs>
    <g id="Holiday-Offer---Desktop-(Gig)" stroke="none" stroke-width="1" fill="none" fill-rule="evenodd">
        <g id="Holiday-Offer-Plans-&amp;-Pricing-(Desktop,-Non-Gig)" transform="translate(-1079.000000, -933.000000)" fill-rule="nonzero">
            <g id="Pricing-Section" transform="translate(0.000000, 160.000000)">
                <g id="card-4" transform="translate(1000.000000, 373.000000)">
                    <g id="TV" transform="translate(0.000000, 280.000000)">
                        <g id="Channel-Logos" transform="translate(0.000000, 120.000000)">
                            <g id="Cinemax" transform="translate(79.000000, 0.000000)">
                                <polygon id="path3321" fill="#FFFFFF" transform="translate(34.333307, 11.345923) scale(-1, 1) rotate(-180.000000) translate(-34.333307, -11.345923) " points="64.3920094 20.4398047 5.3277877 12.9432801 4.2746053 2.25204086 62.8455027 9.2615076"></polygon>
                                <path d="M7.0289532,17.4734906 C6.95268316,18.1992712 7.70727436,18.7968778 8.70528227,18.678318 L8.70852997,18.678318 L13.6855876,18.0743024 L14.0296166,15.7976271 L10.646126,16.2077811 C10.1982396,16.2622549 9.79579074,16.124469 9.87530713,15.552496 L10.1722747,13.4889092 C10.259905,12.8336242 10.821386,12.6589887 11.4088313,12.5884931 L14.5440369,12.2087806 L14.8734607,9.92569707 L9.36250947,10.5954011 C8.59331298,10.6883272 7.99937644,11.1721805 7.81924833,11.8851431 L7.0289532,17.4734906 L7.0289532,17.4734906 Z M18.357561,9.50112342 L15.6897153,9.82476085 L14.5245613,17.9669573 L17.1940302,17.6449224 L18.357561,9.50112342 L18.357561,9.50112342 Z M18.0135325,17.5439861 L20.6602821,17.2235532 L21.2461048,13.1748852 L23.6267185,16.8646686 L25.9975959,16.5762791 L27.1627497,8.43408253 L24.5160002,8.75451553 L23.9577655,12.6413644 L21.6761403,9.09898028 L19.1770639,9.40178972 L18.0135325,17.5439861 L18.0135325,17.5439861 Z M30.1778702,11.0744487 L30.2947097,10.2493338 L34.4814754,9.74144808 L34.8060304,7.50803206 L27.9968574,8.33314629 L26.8317035,16.4753427 L33.6376308,15.6518303 L33.95245,13.4184144 L29.76893,13.9263001 L29.9019979,13.0403037 L33.8015317,12.5676651 L34.0774034,10.603412 L30.1778702,11.0744487 L30.1778702,11.0744487 Z M58.3054672,8.56866401 L61.2719037,4.29889739 L58.1805131,4.67380356 L56.7979073,6.785456 L55.6489812,4.98141934 L52.7620605,5.33069113 L55.1021048,8.8426346 L52.4310135,12.6894295 L50.431752,5.62548906 L47.7850022,5.94592202 L43.5349493,13.9391173 L44.6238325,6.31762373 L41.6914742,6.67170189 L39.5737499,9.74144808 L38.2706598,7.08666285 L35.6368923,7.40709515 L34.4733615,15.5508941 L37.0844099,15.2336657 L37.658873,11.1978148 L39.0804258,13.8718262 L39.1258634,13.8654199 L41.3766556,10.7460069 L40.8021925,14.7818577 L43.2428491,14.4870591 L43.4586785,14.4598228 L46.1508658,14.1345835 L46.7155925,12.9906382 L49.5116372,12.6525817 L49.7777731,13.6939882 L51.9133476,13.4360399 L52.6192561,13.3495234 L55.0047381,13.0611338 L56.6275156,10.6002101 L57.8786767,12.7134638 L60.7655973,12.3625901 L58.3054672,8.56866401 L58.3054672,8.56866401 Z M67.4514403,0.0893392433 L65.2947683,15.2609025 L0.0672394044,23.1691833 L2.22390989,8.01431588 L67.4514403,0.0893392433 L67.4514403,0.0893392433 Z M48.6759071,8.91152752 L49.1286618,10.8020806 L47.6697853,10.9783189 L48.6759071,8.91152752 L48.6759071,8.91152752 Z" id="path3325" fill="#000000"></path>
                                <path d="M62.5386469,5.13908277 C62.6230313,5.14869575 62.6700918,5.17753471 62.6944335,5.20797582 C62.7139068,5.23200827 62.7220207,5.26084723 62.7171523,5.28808401 C62.7090385,5.36018138 62.6571096,5.37620301 62.5727252,5.36659003 L62.428298,5.34736407 L62.3942197,5.12306114 L62.5386469,5.13908277 L62.5386469,5.13908277 L62.5386469,5.13908277 Z M62.3163264,4.57832543 L62.0015076,4.5398735 L62.1475575,5.58127999 L62.5564974,5.63094707 C62.8615795,5.66779683 63.0011384,5.54603239 63.0238572,5.36498787 C63.0465761,5.18394335 62.9508323,5.05096375 62.7739496,4.97245773 L62.9589461,4.65683146 L62.6311451,4.61677736 L62.4737358,4.89234954 L62.3568958,4.87793007 L62.3163264,4.57832543 L62.3163264,4.57832543 L62.3163264,4.57832543 Z M63.1390744,4.57351894 C63.309466,4.78820889 63.3792454,5.04135078 63.3467899,5.30410564 C63.294861,5.71425958 62.9767967,6.01546638 62.4948319,5.95618633 C62.2335647,5.92414305 62.0193581,5.78795912 61.8797993,5.61011893 C61.7094077,5.39382682 61.6380055,5.1422871 61.6704611,4.87953223 C61.7223899,4.46777613 62.0404543,4.16817149 62.5240419,4.22584939 C62.7836862,4.25789267 62.9978928,4.39407659 63.1390744,4.57351894 L63.1390744,4.57351894 L63.1390744,4.57351894 Z M63.455516,5.3281381 C63.4912171,5.03814646 63.4149465,4.75135912 63.236441,4.52385186 C63.0595583,4.30275325 62.8193873,4.15695635 62.5240419,4.12170874 C62.0047532,4.05762219 61.620155,4.3892701 61.561735,4.85389761 C61.5260339,5.14549143 61.6023044,5.43227875 61.7824327,5.65978601 C61.9576926,5.88088462 62.1978636,6.02507936 62.4915863,6.06192913 C63.0141206,6.12441353 63.397096,5.79436777 63.455516,5.3281381 L63.455516,5.3281381 L63.455516,5.3281381 Z" id="path3329" fill="#FFFFFF" transform="translate(62.508629, 5.091652) scale(-1, 1) rotate(-180.000000) translate(-62.508629, -5.091652) "></path>
                            </g>
                        </g>
                    </g>
                </g>
            </g>
        </g>
    </g>
</svg>