<?xml version="1.0" encoding="UTF-8"?>
<svg width="60px" height="22px" viewBox="0 0 60 22" version="1.1" xmlns="http://www.w3.org/2000/svg" xmlns:xlink="http://www.w3.org/1999/xlink">
    <!-- Generator: Sketch 47.1 (45422) - http://www.bohemiancoding.com/sketch -->
    <title>epix-logo</title>
    <desc>Created with Sketch.</desc>
    <defs></defs>
    <g id="Holiday-Offer---Desktop-(Gig)" stroke="none" stroke-width="1" fill="none" fill-rule="evenodd">
        <g id="Holiday-Offer-Plans-&amp;-Pricing-(Desktop,-Non-Gig)" transform="translate(-1159.000000, -934.000000)" fill-rule="nonzero" fill="#000000">
            <g id="Pricing-Section" transform="translate(0.000000, 160.000000)">
                <g id="card-4" transform="translate(1000.000000, 373.000000)">
                    <g id="TV" transform="translate(0.000000, 280.000000)">
                        <g id="Channel-Logos" transform="translate(0.000000, 120.000000)">
                            <g id="epix-logo" transform="translate(159.000000, 1.000000)">
                                <polygon id="Fill-1" points="56.7171456 19.7254237 57.5764963 19.7254237 57.5764963 19.8552524 57.2382397 19.8552524 57.2382397 20.5830508 57.052763 20.5830508 57.052763 19.8552524 56.7171456 19.8552524"></polygon>
                                <polygon id="Fill-2" points="59.0936498 19.7254237 58.8708383 20.3965072 58.8685518 20.3965072 58.6403672 19.7254237 58.435847 19.7254237 58.435847 20.5830508 58.5736037 20.5830508 58.5736037 19.9208504 58.5761188 19.9208504 58.8062469 20.5830508 58.9254836 20.5830508 59.1548115 19.9208504 59.1569836 19.9208504 59.1569836 20.5830508 59.2951977 20.5830508 59.2951977 19.7254237"></polygon>
                                <path d="M25.6660861,8.6010338 L22.2244104,8.6010338 L22.2244104,13.0061103 L25.7304105,13.0061103 C26.9845804,13.0061103 27.9177585,12.1315171 27.9177585,10.8043333 C27.9177585,9.59036637 27.0820131,8.6010338 25.6660861,8.6010338 L25.6660861,8.6010338 L25.6660861,8.6010338 Z M25.8907487,16.7912621 L22.2244104,16.7912621 L22.2244104,21.3938452 L17.8166064,21.3938452 L17.8166064,4.98681445 L25.6340814,4.98681445 C29.4612309,4.98681445 32.3246165,7.52754992 32.3246165,10.8887615 C32.3246165,13.7406357 29.7517947,16.7912621 25.8907487,16.7912621 L25.8907487,16.7912621 L25.8907487,16.7912621 Z" id="Fill-3"></path>
                                <polygon id="Fill-5" points="51.3264648 21.393859 47.7569287 16.5087875 44.1856581 21.393859 38.8785726 21.393859 45.2479583 13.0347743 39.1360281 4.98641307 44.4431139 4.98641307 47.7569287 9.73114003 51.0693245 4.98641307 56.3779867 4.98641307 50.2647954 13.0347743 56.635127 21.393859"></polygon>
                                <polygon id="Fill-7" points="33.6659871 21.3938313 38.0730029 21.3938313 38.0730029 4.98638539 33.6659871 4.98638539"></polygon>
                                <path d="M38.1690955,2.02636006 C38.1690955,3.14358056 37.1372235,4.05028416 35.863977,4.05028416 C34.5913611,4.05028416 33.5588585,3.14358056 33.5588585,2.02636006 C33.5588585,0.909416373 34.5913611,0.00298958905 35.863977,0.00298958905 C37.1372235,0.00298958905 38.1690955,0.909416373 38.1690955,2.02636006" id="Fill-9"></path>
                                <path d="M8.20275975,8.54493748 C6.43367864,8.54493748 4.92158018,9.73122305 4.69675978,11.2269864 L11.5487369,11.2269864 C11.3546597,9.92817609 10.3896347,8.54493748 8.20275975,8.54493748 L8.20275975,8.54493748 L8.20275975,8.54493748 Z M4.66380924,14.8990599 C4.85788631,16.7056851 6.36951181,17.8925243 8.65381949,17.8925243 C10.1015935,17.8925243 11.6441199,17.3279626 12.7385822,16.2259668 L15.9882302,18.6558384 C13.9938556,20.6596935 11.5164169,21.5914487 8.71798626,21.5914487 C3.31457155,21.5914487 -3.15316139e-05,18.428851 -3.15316139e-05,13.0629539 C-3.15316139e-05,8.23393721 3.41074297,4.84559789 8.20275975,4.84559789 C13.0282,4.84559789 16.277375,7.78162346 16.277375,12.3004704 L16.277375,14.8990599 L4.66380924,14.8990599 L4.66380924,14.8990599 Z" id="Fill-10"></path>
                            </g>
                        </g>
                    </g>
                </g>
            </g>
        </g>
    </g>
</svg>