<?xml version="1.0" encoding="UTF-8"?>
<svg width="23px" height="19px" viewBox="0 0 23 19" version="1.1" xmlns="http://www.w3.org/2000/svg" xmlns:xlink="http://www.w3.org/1999/xlink">
    <!-- Generator: Sketch 47.1 (45422) - http://www.bohemiancoding.com/sketch -->
    <title>Page 1</title>
    <desc>Created with Sketch.</desc>
    <defs></defs>
    <g id="Symbols" stroke="none" stroke-width="1" fill="none" fill-rule="evenodd">
        <g id="Footer" transform="translate(-659.000000, -420.000000)" fill="#959595">
            <g transform="translate(0.000000, 282.000000)" id="Search-bar">
                <g transform="translate(280.000000, 138.000000)">
                    <g id="Page-1" transform="translate(379.000000, 0.000000)">
                        <g id="Group-3" transform="translate(5.568627, 0.077644)">
                            <path d="M15.1626765,10.2272527 C14.4763431,13.9366566 10.987598,16.3799937 7.37912745,15.6753502 C6.80555882,15.5636384 6.24869608,15.3774521 5.72663725,15.1196557 C3.01889216,13.7776822 1.52371569,10.7127693 2.08197059,7.67363611 C2.76830392,3.96280005 6.25704902,1.51946299 9.86273529,2.22410651 C10.4404804,2.33725049 10.995951,2.52486898 11.5180098,2.78123319 C14.2243627,4.12463891 15.7237157,7.18811955 15.1626765,10.2272527 M12.3658333,0.976658337 C11.6892451,0.64295521 10.9695,0.398048623 10.2246961,0.253396194 C5.56514706,-0.656052242 1.05455882,2.50195375 0.169147059,7.29983132 C-0.556166667,11.2297943 1.38171569,15.1884014 4.88020588,16.9227983 C5.55540196,17.2579337 6.2737549,17.501408 7.01855882,17.6474927 C11.6808922,18.5555089 16.1900882,15.3960707 17.0768922,10.6010575 C17.8022059,6.67109453 15.8657157,2.71248748 12.3658333,0.976658337" id="Fill-1"></path>
                        </g>
                        <path d="M0.549066667,16.6399567 C0.100792157,16.9507446 -0.0871490196,17.5078712 0.038145098,18.0148708 C0.0701647059,18.1566589 0.130027451,18.2941503 0.21494902,18.4216163 C0.597792157,19.007387 1.37322353,19.1620648 1.94400784,18.7653448 L6.42257647,15.6617625 L5.02485098,13.5378066 L0.549066667,16.6399567 Z" id="Fill-4"></path>
                    </g>
                </g>
            </g>
        </g>
    </g>
</svg>