<?xml version="1.0" encoding="UTF-8"?>
<svg width="105px" height="39px" viewBox="0 0 105 39" version="1.1" xmlns="http://www.w3.org/2000/svg" xmlns:xlink="http://www.w3.org/1999/xlink">
    <!-- Generator: Sketch 47.1 (45422) - http://www.bohemiancoding.com/sketch -->
    <title>Showtime_1997</title>
    <desc>Created with Sketch.</desc>
    <defs></defs>
    <g id="Holiday-Offer---Desktop-(Gig)" stroke="none" stroke-width="1" fill="none" fill-rule="evenodd">
        <g id="Holiday-Offer-Homepage-(Desktop,-Non-Gig)---PreHoliday-Imagery" transform="translate(-279.000000, -846.000000)" fill="#FFFFFF">
            <g id="Hero" transform="translate(0.000000, 221.000000)">
                <g id="Lockup" transform="translate(279.000000, 362.000000)">
                    <g id="Sweeteners" transform="translate(0.000000, 233.000000)">
                        <g id="Showtime_1997" transform="translate(0.000000, 30.000000)">
                            <g id="svg2">
                                <g id="layer1" transform="translate(0.078487, 0.137241)">
                                    <path d="M3.76681265,27.9970522 C4.96479901,27.9970522 5.81576188,26.9240142 5.81576188,25.3605773 C5.81576188,22.1260913 3.03504644,21.4957972 0.0596958889,18.762472 C0.0174491447,24.302913 1.70277765,27.9970522 3.76681265,27.9970522" id="path3680"></path>
                                    <path d="M24.8281296,31.9955787 L20.5371075,31.9955787 L20.5371075,21.1160835 L15.9020779,21.1160835 L15.9020779,31.9955787 L11.6020035,31.9955787 L11.6020035,6.89295425 L15.8945344,6.89295425 L15.8945344,17.0007229 L20.5371075,17.0007229 L20.5371075,6.89295425 L24.8281296,6.89295425 L24.8281296,31.9955787 L24.8281296,31.9955787 Z M26.6160561,19.3773926 C26.6160561,11.7200857 29.3937542,6.88834119 32.7146195,6.38103145 C29.3952629,2.22262597 23.8519366,0.00276083126 18.8140597,0.00276083126 C13.2707348,0.00276083126 8.28868177,2.45322258 4.85616609,6.34721127 C8.13176725,7.01132559 9.24375141,9.80921806 9.24375141,14.1367273 L5.2394001,14.1367273 C5.2394001,11.5832664 4.71735615,10.2611852 3.2342077,10.2611852 C2.56430152,10.2611852 2.04376491,10.6055415 1.74049688,11.1912535 C1.69674142,11.2927155 1.65298734,11.3880285 1.61074059,11.4894905 C1.49456274,11.816936 1.43270271,12.1935753 1.43270271,12.6163338 C1.43270271,17.910806 9.96646533,17.6479278 9.96646533,25.7833359 C9.96646533,28.9624793 7.57502013,31.9279369 4.88332432,31.9279369 C8.42145686,35.8665077 13.2511201,38.2231936 18.8140597,38.2231936 C24.2231022,38.2231936 29.0950109,35.8880301 32.5184757,32.1569949 C29.3605597,31.349911 26.6160561,26.7226276 26.6160561,19.3773926 L26.6160561,19.3773926 Z" id="path3682"></path>
                                    <path d="M30.8814287,18.9700076 C30.8814287,14.745499 32.0869587,10.5194517 34.289805,10.5194517 C36.9105871,10.5194517 37.5699323,17.0483794 37.5699323,19.1145144 C37.5699323,23.6403345 36.1727847,27.7310996 34.289805,27.7310996 C32.0296248,27.7310996 30.8814287,23.4235756 30.8814287,18.9700076" id="path3684"></path>
                                    <polyline id="path3686" points="73.7494082 7.24038498 55.657407 7.24038498 53.9388855 21.5741995 53.8740072 21.5741995 51.953307 7.24038498 48.0168516 7.24038498 45.9301832 21.5741995 45.8607796 21.5741995 44.3127523 7.24038498 40.3415941 7.24038498 43.538738 31.6573712 47.3771211 31.6573712 49.5316855 16.1905631 49.5980727 16.1905631 51.6847409 31.6573712 55.657407 31.6573712 58.3023304 11.0113893 62.0185009 11.0113893 62.0185009 31.6573712 66.3909986 31.6573712 66.3909986 11.0113893 70.3998758 11.0113893 70.3998758 31.6573712 74.7753911 31.6573712 74.7753911 7.24038498 73.7494082 7.24038498"></polyline>
                                    <polyline id="path3688" points="76.9239204 7.24038498 82.7448639 7.24038498 84.6972499 19.7571077 84.7636361 19.7571077 86.8171114 7.24038498 92.5052812 7.24038498 92.5052812 31.6573712 88.6035279 31.6573712 88.6035279 13.7554749 88.5326142 13.7554749 85.5738609 31.6573712 83.1492226 31.6573712 80.220645 13.7554749 80.1557661 13.7554749 80.1557661 31.6573712 76.9239204 31.6573712 76.9239204 7.24038498"></polyline>
                                    <polyline id="path3690" points="94.6553184 7.24038498 104.550018 7.24038498 104.550018 11.0113893 99.030834 11.0113893 99.030834 17.2497661 103.106098 17.2497661 103.106098 21.228306 99.030834 21.228306 99.030834 27.8832925 104.791426 27.8832925 104.791426 31.6573712 94.6553184 31.6573712 94.6553184 7.24038498"></polyline>
                                </g>
                            </g>
                        </g>
                    </g>
                </g>
            </g>
        </g>
    </g>
</svg>