<?xml version="1.0" encoding="UTF-8"?>
<svg width="67px" height="24px" viewBox="0 0 67 24" version="1.1" xmlns="http://www.w3.org/2000/svg" xmlns:xlink="http://www.w3.org/1999/xlink">
    <!-- Generator: Sketch 47.1 (45422) - http://www.bohemiancoding.com/sketch -->
    <title>svg2</title>
    <desc>Created with Sketch.</desc>
    <defs></defs>
    <g id="Holiday-Offer---Desktop-(Gig)" stroke="none" stroke-width="1" fill="none" fill-rule="evenodd">
        <g id="Holiday-Offer-Plans-&amp;-Pricing-(Desktop,-Non-Gig)" transform="translate(-520.000000, -915.000000)" fill="#000000">
            <g id="Pricing-Section" transform="translate(0.000000, 160.000000)">
                <g id="card-2" transform="translate(520.000000, 373.000000)">
                    <g id="TV" transform="translate(0.000000, 280.000000)">
                        <g id="HBO-or-MRDVR" transform="translate(0.000000, 93.000000)">
                            <g id="HBO-offer">
                                <g id="Showtime_1997" transform="translate(0.000000, 9.000000)">
                                    <g id="svg2">
                                        <g id="layer1" transform="translate(0.049610, 0.085775)">
                                            <path d="M2.38090988,17.4981576 C3.13812768,17.4981576 3.67600043,16.8275089 3.67600043,15.8503608 C3.67600043,13.8288071 1.91837841,13.4348732 0.0377323071,11.726545 C0.0110291764,15.1893206 1.07628399,17.4981576 2.38090988,17.4981576" id="path3680"></path>
                                            <path d="M15.6932517,19.9972367 L12.9810019,19.9972367 L12.9810019,13.1975522 L10.0513134,13.1975522 L10.0513134,19.9972367 L7.33334185,19.9972367 L7.33334185,4.3080964 L10.0465453,4.3080964 L10.0465453,10.6254518 L12.9810019,10.6254518 L12.9810019,4.3080964 L15.6932517,4.3080964 L15.6932517,19.9972367 L15.6932517,19.9972367 Z M16.8233562,12.1108704 C16.8233562,7.32505356 18.579071,4.30521325 20.6781085,3.98814466 C18.5800246,1.38914123 15.0762241,0.00172551954 11.8919057,0.00172551954 C8.38810596,0.00172551954 5.23907244,1.53326411 3.06946347,3.96700704 C5.13989062,4.38207849 5.84274853,6.13076129 5.84274853,8.83545454 L3.31169629,8.83545454 C3.31169629,7.23954147 2.98172511,6.41324074 2.04426336,6.41324074 C1.62083209,6.41324074 1.29181367,6.62846343 1.10012539,6.99453345 C1.07246864,7.05794716 1.04481275,7.11751784 1.01810962,7.18093156 C0.944676446,7.385585 0.905576239,7.62098454 0.905576239,7.88520865 C0.905576239,11.1942537 6.29955827,11.0299549 6.29955827,16.114585 C6.29955827,18.1015496 4.78798442,19.9549606 3.08662952,19.9549606 C5.32299631,22.4165673 8.37570802,23.889496 11.8919057,23.889496 C15.3108288,23.889496 18.3902427,22.4300188 20.5541308,20.0981218 C18.5580896,19.5936943 16.8233562,16.7016422 16.8233562,12.1108704 L16.8233562,12.1108704 Z" id="path3682"></path>
                                            <path d="M19.5193936,11.8562547 C19.5193936,9.21593685 20.2813795,6.57465732 21.6737447,6.57465732 C23.3302768,6.57465732 23.7470327,10.6552371 23.7470327,11.9465715 C23.7470327,14.775209 22.8639299,17.3319372 21.6737447,17.3319372 C20.2451402,17.3319372 19.5193936,14.6397348 19.5193936,11.8562547" id="path3684"></path>
                                            <polyline id="path3686" points="46.615192 4.52524061 35.1796818 4.52524061 34.0934465 13.4838747 34.0524385 13.4838747 32.838411 4.52524061 30.3502741 4.52524061 29.0313422 13.4838747 28.9874739 13.4838747 28.0090038 4.52524061 25.4989321 4.52524061 27.5197683 19.785857 29.9459162 19.785857 31.3077635 10.1191019 31.3497252 10.1191019 32.668657 19.785857 35.1796818 19.785857 36.851473 6.8821183 39.2003732 6.8821183 39.2003732 19.785857 41.9641218 19.785857 41.9641218 6.8821183 44.4980347 6.8821183 44.4980347 19.785857 47.2636906 19.785857 47.2636906 4.52524061 46.615192 4.52524061"></polyline>
                                            <polyline id="path3688" points="48.6217233 4.52524061 52.3009989 4.52524061 53.5350542 12.3481923 53.5770153 12.3481923 54.8749667 4.52524061 58.4703192 4.52524061 58.4703192 19.785857 56.0041167 19.785857 56.0041167 8.59717184 55.9592939 8.59717184 54.0891385 19.785857 52.5565841 19.785857 50.705502 8.59717184 50.6644937 8.59717184 50.6644937 19.785857 48.6217233 19.785857 48.6217233 4.52524061"></polyline>
                                            <polyline id="path3690" points="59.829305 4.52524061 66.083502 4.52524061 66.083502 6.8821183 62.5949611 6.8821183 62.5949611 10.7811038 65.1708353 10.7811038 65.1708353 13.2676912 62.5949611 13.2676912 62.5949611 17.4270578 66.2360901 17.4270578 66.2360901 19.785857 59.829305 19.785857 59.829305 4.52524061"></polyline>
                                        </g>
                                    </g>
                                </g>
                            </g>
                        </g>
                    </g>
                </g>
            </g>
        </g>
    </g>
</svg>